# xmcd
#
# Track frame offsets:
#	150
#	13490
#	26192
#	45312
#	58367
#	80187
#	91060
#	108017
#	119707
#	136657
#	158790
#	171740
#	181365
#	191565
#	205430
#	215267
#	229740
#	242417
#	254485
#	262847
#	271315
#	282372
#	292067
#	301207
#	311485
#	318540
#	330585
#
# Disc length: 4543 seconds
#
# Revision: 1
# Processed by: cddbd v1.5.2PL0 Copyright (c) Steve Scherf et al.
# Submitted via: audiograbber 1.83.01
#
DISCID=9511bd1b
DTITLE=The Cathedrals - An Old Convention Song/The Prestigious Cathedral Quarte
DTITLE=t
DYEAR=1990
DGENRE=Gospel
TTITLE0=Build An Ark
TTITLE1=All In God's Own Time
TTITLE2=How Unworthy I Am
TTITLE3=Come On In
TTITLE4=It's Almost Over
TTITLE5=An Old Convention Song
TTITLE6=Somebody Touched Me
TTITLE7=I Would Not Be Suprised
TTITLE8=When The World Looks At Me
TTITLE9=Next Time We Meet
TTITLE10=My Burdens Have Rolled Away
TTITLE11=Story Waters
TTITLE12=Turn Your Radio On
TTITLE13=My Soul Shall Live On
TTITLE14=Go Right Out
TTITLE15=Far Above The Starry Sky
TTITLE16=When We Sing Around The Throne Eternal
TTITLE17=An Empty Mansion
TTITLE18=After The Sunrise
TTITLE19=Give The World A Smile
TTITLE20=Down On My Knees
TTITLE21=I Love My Savior, Too
TTITLE22=I'll Be Listening
TTITLE23=Rocked On The Deep
TTITLE24=Headin' For Gloryland
TTITLE25=Where The Roses Never Fade
TTITLE26=Keep Moving Along
EXTD=
EXTT0=
EXTT1=
EXTT2=
EXTT3=
EXTT4=
EXTT5=
EXTT6=
EXTT7=
EXTT8=
EXTT9=
EXTT10=
EXTT11=
EXTT12=
EXTT13=
EXTT14=
EXTT15=
EXTT16=
EXTT17=
EXTT18=
EXTT19=
EXTT20=
EXTT21=
EXTT22=
EXTT23=
EXTT24=
EXTT25=
EXTT26=
PLAYORDER=
